<svg xmlns="http://www.w3.org/2000/svg" xmlns:xlink="http://www.w3.org/1999/xlink" width="280" height="112" viewBox="0 0 280 112"><defs><style>.a{fill:#fff;}.b{fill:none;}.c{clip-path:url(#a);}.d{clip-path:url(#b);}.e{fill:#fffaea;}.f{fill:#f0dea9;}.g{fill:#fff0c4;}.h{fill:#fff4d5;opacity:0.4;}.i{fill:#087de2;}.j{fill:#d63348;}.k{fill:#eac2a5;}.l{fill:#4e587f;}.m{fill:#393762;}.n{fill:#ad293a;}.o{fill:#ece0d3;}.p{fill:#f9c053;}.q{fill:#49478a;}.r{fill:#d09d3d;}</style><clipPath id="a"><rect class="a" width="280" height="112" transform="translate(40 81)"/></clipPath><clipPath id="b"><rect class="b" width="280" height="112"/></clipPath></defs><g class="c" transform="translate(-40 -81)"><g transform="translate(40 81)"><g class="d"><path class="e" d="M121.563,93.354l-49.978-.136C14.817,93.063-32.434,22.649,28.661,12.593c47.39-7.768,94.76-25.8,118.671,4.035,13.839,17.271,24.906,5.254,38.475,8.2C219.518,32.163,223.4,93.632,121.563,93.354Z" transform="translate(233.197 72.018) rotate(164)"/><path class="f" d="M283.012,122.49c-1.072-.877-3.021-.193-4.686,1.4l-3.668-3.726a23.563,23.563,0,0,0,7.707-17.264l4.677-.728c.806,2.06,2.312,3.384,3.544,3.007s1.772-2.63,1.01-5-2.41-3.937-3.721-3.507c-1.072.333-1.55,1.911-1.285,3.761l-4.252.666A23.525,23.525,0,0,0,277.75,88.83l1.568-2.56c1.373.736,2.746.815,3.322.088.7-.877-.062-2.63-1.7-3.893S277.4,80.9,276.7,81.789s-.1,2.218,1.143,3.411l-1.355,2.043A23.992,23.992,0,0,0,261.7,79.352l.39-2.446c1.852.281,3.419-.167,3.774-1.21.443-1.289-1.125-2.964-3.49-3.753s-4.633-.386-5.076.877.93,2.718,3.021,3.56l-.443,2.771a24.238,24.238,0,0,0-13.944,3.507l-1.9-3.042a.606.606,0,0,0,.1-.114c1.869-2.376,2.312-5.12.992-6.137s-3.9.088-5.758,2.464-2.312,5.12-.992,6.137c1.01.78,2.746.316,4.35-1.008l1.683,2.709a23.59,23.59,0,0,0-9.816,19.745l-2.188-.447c.115-2.359-.815-4.314-2.135-4.384s-2.658,1.815-2.808,4.279.771,4.542,2.135,4.638c1.054.079,2.046-1.061,2.525-2.718l2.6.535a23.593,23.593,0,0,0,7.858,15.142l-1.32,2.122c-2.241-1.569-4.713-1.9-5.661-.7s.089,3.735,2.418,5.524,5.005,2.209,6,.947c.824-1.052.213-2.937-1.355-4.568L244,121.6a23.353,23.353,0,0,0,3.428,2.069A23.9,23.9,0,0,0,261.91,126.1l-.159,2.008c-2.25.386-3.907,1.622-3.756,2.885s2.3,2.2,4.784,1.92,4.359-1.613,4.2-2.964c-.133-1.078-1.55-1.832-3.384-1.946l.177-2.245a24.08,24.08,0,0,0,9.461-4.463l3.88,3.963c-1.55,2.2-1.86,4.612-.664,5.532s3.774-.088,5.581-2.385S284.288,123.463,283.012,122.49Z" transform="translate(-20.943 -28.65)"/><path class="g" d="M3.2,0a3.25,3.25,0,0,1,3.221,3.24A3.184,3.184,0,0,1,3.224,6.456,3.25,3.25,0,0,1,0,3.216,3.184,3.184,0,0,1,3.2,0Z" transform="translate(231.617 64.204) rotate(-62.45)"/><path class="g" d="M254.391,110.669a3.25,3.25,0,0,0-4.363,1.358,3.184,3.184,0,0,0,1.374,4.318,3.25,3.25,0,0,0,4.362-1.362,3.184,3.184,0,0,0-1.373-4.314Z" transform="translate(-23.478 -33.427)"/><ellipse class="g" cx="4.447" cy="4.401" rx="4.447" ry="4.401" transform="translate(245.654 60.793)"/><path class="g" d="M267.323,121.55a3.241,3.241,0,0,0-4.345,1.361,3.175,3.175,0,0,0,1.369,4.3,3.241,3.241,0,0,0,4.348-1.349,3.184,3.184,0,0,0-1.373-4.314Z" transform="translate(-24.956 -34.769)"/><path class="g" d="M2.73,0A2.775,2.775,0,0,1,5.485,2.758,2.707,2.707,0,0,1,2.758,5.484,2.775,2.775,0,0,1,0,2.729,2.707,2.707,0,0,1,2.73,0Z" transform="translate(238.573 76.027) rotate(-44.5)"/><path class="g" d="M248.514,95.8a1.635,1.635,0,0,0-1.794.185,1.594,1.594,0,0,0-.51,1.713,1.627,1.627,0,0,0,2.987.259A1.6,1.6,0,0,0,248.514,95.8Z" transform="translate(-23.076 -31.618)"/><path class="h" d="M235.63,121.8c-.983,1.263.089,3.735,2.418,5.524s5.005,2.209,6,.947c.824-1.052.213-2.937-1.355-4.568l1.347-2.174a23.979,23.979,0,0,0,17.9,4.577l-.159,2.008c-2.25.386-3.907,1.622-3.756,2.885s2.3,2.2,4.784,1.92,4.359-1.613,4.2-2.964c-.133-1.078-1.55-1.832-3.384-1.946l.177-2.245a24.321,24.321,0,0,0,3.49-1.078c-5.041.342-24.8-8.514-21.332-24.129s20.446-20.166,20.446-20.166a23.8,23.8,0,0,0-4.669-1.122l.39-2.446c1.852.281,3.42-.167,3.774-1.21.443-1.289-1.125-2.964-3.49-3.753s-4.633-.386-5.076.877.93,2.718,3.021,3.56l-.443,2.771a24.238,24.238,0,0,0-13.944,3.507l-1.9-3.042a.607.607,0,0,0,.1-.114c1.869-2.376,2.312-5.12.992-6.137s-3.9.088-5.758,2.464-2.312,5.12-.992,6.137c1.01.78,2.746.316,4.35-1.008l1.683,2.709a23.59,23.59,0,0,0-9.816,19.745l-2.188-.447c.115-2.359-.815-4.314-2.135-4.384s-2.658,1.815-2.808,4.279.771,4.542,2.135,4.638c1.054.079,2.046-1.061,2.525-2.718l2.6.535a23.592,23.592,0,0,0,7.858,15.142l-1.32,2.122C239.05,120.937,236.578,120.6,235.63,121.8Z" transform="translate(-20.947 -28.641)"/><path class="f" d="M3.358,0A3.407,3.407,0,0,1,6.747,3.382,3.327,3.327,0,0,1,3.392,6.727,3.407,3.407,0,0,1,0,3.348,3.327,3.327,0,0,1,3.358,0Z" transform="translate(231.045 17.545) rotate(-36.54)"/><path class="f" d="M3.358,0A3.407,3.407,0,0,1,6.747,3.382,3.327,3.327,0,0,1,3.392,6.727,3.407,3.407,0,0,1,0,3.348,3.327,3.327,0,0,1,3.358,0Z" transform="translate(148.882 102.619) rotate(-36.54)"/><path class="f" d="M5.005,0a5.075,5.075,0,0,1,5.032,5.075,5,5,0,0,1-5,5.044A5.075,5.075,0,0,1,0,5.048,5,5,0,0,1,5.005,0Z" transform="translate(152.039 72.003) rotate(-72.28)"/><path class="f" d="M211.814,99.5a3.393,3.393,0,0,0-4.552,1.413,3.324,3.324,0,0,0,1.424,4.507,3.393,3.393,0,0,0,4.555-1.4,3.31,3.31,0,0,0,.234-2.551A3.349,3.349,0,0,0,211.814,99.5Z" transform="translate(-23.606 -12.213)"/><path class="f" d="M3.347,0a3.405,3.405,0,0,1,3.375,3.39A3.329,3.329,0,0,1,3.379,6.751,3.405,3.405,0,0,1,0,3.361,3.329,3.329,0,0,1,3.347,0Z" transform="matrix(0.541, -0.841, 0.841, 0.541, 32.05, 62.698)"/><ellipse class="f" cx="3.563" cy="3.526" rx="3.563" ry="3.526" transform="matrix(0.999, -0.042, 0.042, 0.999, 58.053, 2.424)"/><path class="f" d="M27.467,43.145a3.384,3.384,0,1,0,3.765-2.928,3.4,3.4,0,0,0-2.5.689,3.332,3.332,0,0,0-1.267,2.239Z" transform="translate(-3.131 -4.952)"/><ellipse class="f" cx="1.692" cy="1.675" rx="1.692" ry="1.675" transform="translate(74.769 46.066)"/><path class="f" d="M57.839,29.165a1.691,1.691,0,1,0,2.717-1.182,1.706,1.706,0,0,0-1.712-.206,1.676,1.676,0,0,0-1,1.388Z" transform="translate(-6.599 -3.405)"/><g transform="translate(-21 12.74)"><rect class="i" width="74.38" height="58.27" rx="13.65" transform="translate(109.76 11.09)"/><path class="i" d="M179.46,40.78l9.84-3a1.5,1.5,0,0,1,1.52,2.46L181,50.65a1.49,1.49,0,0,1-2.58-1V42.21A1.49,1.49,0,0,1,179.46,40.78Z"/><path class="a" d="M163.1,50.64H130.8a6.5,6.5,0,0,1,1.91-4.6l.64-.65A5.55,5.55,0,0,0,135,41.45V33.94a11.94,11.94,0,0,1,15.29-11.49,8.61,8.61,0,0,0-.56,3.06,8.71,8.71,0,0,0,8.72,8.71h.48v7.23a5.579,5.579,0,0,0,1.629,3.939l.651.651a6.46,6.46,0,0,1,1.41,2.11A6.58,6.58,0,0,1,163.1,50.64Z"/><path class="a" d="M153.34,52.39a6.39,6.39,0,0,1-6.63,6.1,6.47,6.47,0,0,1-6.14-6.1Z"/><path class="j" d="M6.52,0A6.52,6.52,0,1,1,0,6.52,6.52,6.52,0,0,1,6.52,0Z" transform="translate(149.226 25.132) rotate(-42.56)"/><path class="a" d="M159.73,22.37v6.56h-1.81v-4.3a6,6,0,0,1-.86.54,6.35,6.35,0,0,1-1,.4V24.1a4.46,4.46,0,0,0,1.42-.71,3.08,3.08,0,0,0,.8-1Z"/></g></g><g transform="translate(-5 -13.26)"><path class="k" d="M70.64,72.11l1.56-6s2.25.61,3.24-.35c.41-.4.79-2.14,1-4.91,0-.29,1.12.31,1.13,0,0-.59-2-3.27-1.79-4.36.63-4,.3-5.07-.86-6.2-2.57-2.51-11.59-2.88-12.82,1.5s-.84,6.5,1.39,12.72l-1.36,6.21Z"/><path class="l" d="M85,150.13l-7.14-27.77H51.36l-4.7,30.53c2.25.62,4.5,1.2,6.8,1.65,1.6.3,3.2.57,4.78.88l7.22-18.57,7.63,17.81C76.76,153.66,81.44,151.47,85,150.13Z"/><path class="j" d="M61.92,65.74s5.43,1.7,8.16,4.84,7.14,12.22,7.24,13.24S76,96.05,76,96.05l4.89,29.71s-21,3.24-31.42,0l5.48-24.55s-.78-8.63-1.66-9.65S53.92,82,54.61,78a21.25,21.25,0,0,1,4.89-9.45A19.66,19.66,0,0,0,61.92,65.74Z"/><path class="j" d="M63.7,66.41c-2.52-1.68-11.33-2-12.38-1.31s1.39,2.81,1.13,4.23S47,72.59,48.79,75.68s6.89,6.76,6.89,6.76Z"/><path class="m" d="M74.16,47.08a19.34,19.34,0,0,1-2.63.36,13.51,13.51,0,0,1-3.38-.62,13.48,13.48,0,0,0-3.38-.6,4.5,4.5,0,0,0-3.16,1.13A3.07,3.07,0,0,0,61,50.72c-2.88,1.18-.89,6.21,0,8.44s2.4,5.37,2.4,5.37l3-2.89S64.14,59,65.13,57.85s2,.65,2,.65.08,1.36.26,2.78c2.75-.28,2.73-.7,3.25-2.09a5,5,0,0,1-1.57-3.83s3.08,1,3.64-1.57c2.15-.31,4.75-1.19,5.56-3.21a4.8,4.8,0,0,0-1.67-5.75,3.57,3.57,0,0,1-.85,1.57A4.63,4.63,0,0,1,74.16,47.08Z"/><path class="j" d="M72,47.41S67.16,58.5,61.82,61c0,0-4.13-7-4-10.15s2.35-5.14,5.93-5.4S72,47.41,72,47.41Z"/><path class="k" d="M37.83,114.54c-.48-.75.56-2.5,1.31-3.45-.6-1-.6-3.22-1.12-4.27-3.22,5.65-5.5,8-5.76,8.74-.59,1.68-.83,2.63.55,2.74s.6,2,1.76,1.85.58,2.13,1.73,1.5,1-3.34,1-3.34S39.64,117.41,37.83,114.54Z"/><path class="j" d="M58,70.61c-3.54,1.86-23.65,40.08-23.65,40.08l5.2,3.31s6.538-10.2,10.52-15.55,11.59-12.59,13.41-16.6S60.44,69.31,58,70.61Z"/><path class="n" d="M63,57.89a.29.29,0,0,1-.18-.07.27.27,0,0,1,0-.37,34.57,34.57,0,0,0,5.52-8.14.262.262,0,1,1,.47.23,34.87,34.87,0,0,1-5.6,8.26A.25.25,0,0,1,63,57.89Z"/><path class="n" d="M53.24,91.82a.27.27,0,0,1-.26-.21c-1.46-7.65-.5-18,6.61-24a.262.262,0,1,1,.34.4c-6.94,5.88-7.87,16-6.44,23.5a.26.26,0,0,1-.2.31Z"/><path class="j" d="M79.37,92H76.29s-7.44-17.31-10-19.44S63,90.7,67.27,96.77s5.25,6.11,13.43,2.88S79.37,92,79.37,92Z"/><path class="k" d="M103.71,85.13c.34-.77.14-3.17-.16-2.95s-.57,1.56-.57,1.56l-.11.65s-.49-.18-.52,0-.2,1-.2,1L102.07,87Z"/><path class="o" d="M99.93,88.21l1.84-6.79L103.29,76l1.95.73-3.61,11.66Z"/><path class="k" d="M80.58,92.2l1.55,6.15s15.73-6.15,16.55-6.44l2.9-2.28c.49-.36,2-4.14,2.13-4.5s-2.8-.55-2.8-.55a19.821,19.821,0,0,0-.23-2.39c-.08-.31-.75-1.73-1.05-.77L99,84.21l-.93.92a15.68,15.68,0,0,0-1,3.47Z"/><path class="j" d="M79.37,92s1.65-4.65,4.75-2.76,3.48-.45,3.48-.45L96,86.51l2.71,5.4-18,7.74Z"/><path class="n" d="M72.29,102.09A5.63,5.63,0,0,1,69,100.94a13.1,13.1,0,0,1-2.93-3.3,75.269,75.269,0,0,1-6.35-11,21.23,21.23,0,0,1-2.38-8.15c-.09-2.66.67-5,2-6.2a4.46,4.46,0,0,1,3.83-1,.26.26,0,0,1,.22.29.25.25,0,0,1-.3.22,4,4,0,0,0-3.4.88,7.328,7.328,0,0,0-1.87,5.79,20.84,20.84,0,0,0,2.33,7.94,76.25,76.25,0,0,0,6.31,11,13,13,0,0,0,2.81,3.17,4.74,4.74,0,0,0,3.86.94.26.26,0,0,1,.32.19.27.27,0,0,1-.19.32A4.42,4.42,0,0,1,72.29,102.09Z"/><path class="n" d="M74.32,90.52h0a.25.25,0,0,1-.24-.28c.17-2.25.21-4.78-1.38-6.26a7,7,0,0,0-1-.74c-.31-.21-.64-.43-.94-.68a9.26,9.26,0,0,1-2.14-3.24A7,7,0,0,0,66.08,76a.25.25,0,0,1-.1-.35.26.26,0,0,1,.36-.1,7.56,7.56,0,0,1,2.71,3.59,9,9,0,0,0,2,3.06,8.818,8.818,0,0,0,.89.64,7.461,7.461,0,0,1,1.08.79c1.77,1.64,1.73,4.31,1.55,6.69a.26.26,0,0,1-.25.2Z"/></g></g><g transform="translate(30.075 70.902)"><path class="m" d="M220.769,49.643c-5.366-2.137-9.479-7.029-9.023-13.343.4-5.714,3.461-11.161,8.326-13.575a12.842,12.842,0,0,1,5.491-1.476c7.986-.179,12.2,9.694,13.038,17.17.447,3.953-2.379,5.732-4.972,7.843C229.855,49.321,225.509,51.5,220.769,49.643Z" transform="translate(-2.13)"/><path class="k" d="M222.489,49.254l-2.683-5.16s-2.388.68-3.461-.313c-.4-.376-1.082-3.577-1.324-6.126,0-.3-.063-.608-.08-.894s-1.324.572-1.341.241c0-.689,1.225-2.629,1.225-3.327,0-3.219.42-6.331,1.61-7.53,2.683-2.683,12.3-3.264,13.682,1.377a13.486,13.486,0,0,1-3.577,13.611l2.683,6.573Z" transform="translate(-2.329 -0.299)"/><path class="m" d="M214.25,28.812c4.954,5.24,7.369,11.572,14.308,13.664.689-2.6,4.471-8.6,4.373-11.3a9.291,9.291,0,0,0-3.246-7.154,9.452,9.452,0,0,0-5.732-1.7C219.768,22.337,216.369,25.253,214.25,28.812Z" transform="translate(-2.398 -0.113)"/><path class="m" d="M209.482,147.626,195.55,185.508l-3.98-.787,6.868-40.153h0l11.4-35.628h29.055l5.142,36.218h0l16.472,37.685-3.336,2.254L235.38,151.659l-1.645-3.935-10.3-22.911Z" transform="translate(0 -9.272)"/><path class="p" d="M229.089,44.68s-5.956,1.869-8.943,5.312-7.816,13.414-7.923,14.505,3.506,13.226,3.506,13.226l-7.369,28.143s22.956,3.577,34.438,0l-6.01-22.3s1.467-9.148,1.789-10.588c1.019-4.149-.751-10.508-1.5-14.872a23.2,23.2,0,0,0-5.366-10.356,22.126,22.126,0,0,1-2.62-3.067Z" transform="translate(-1.775 -2.477)"/><path class="k" d="M216.309,76.017,214.8,81.9,200.99,76.777s-2.316-1.789-2.781-2.173a25.3,25.3,0,0,1-2.039-4.31c-.116-.349,2.683-.519,2.683-.519a19.264,19.264,0,0,1,.224-2.289c.08-.3.715-1.654,1-.742l.626,2.683.894.894a15.327,15.327,0,0,1,.993,3.318Z" transform="translate(-0.486 -4.777)"/><path class="o" d="M199.619,72.618l-1.753-6.5-1.458-5.187-1.869.7,3.452,11.161Z" transform="translate(-0.314 -4.196)"/><path class="p" d="M218.05,76.632s-1.574-4.471-4.534-2.683a4.471,4.471,0,0,1-5.366-.429l-5.008.8-1.583,3.21,15.2,6.412Z" transform="translate(-1.056 -5.527)"/><path class="k" d="M196.16,70.366c-.322-.733.393-3.023.68-2.808s.4,1.4.4,1.4l-.268.706s.465-.17.492,0,.188.957.188.957l.08,1.511Z" transform="translate(-0.477 -4.895)"/><path class="p" d="M229.36,45.287c2.763-1.842,12.421-2.173,13.566-1.431s-.769,4.713-.483,6.26,5.285,6.555,3.371,9.944-7.673,2.79-7.673,2.79Z" transform="translate(-3.995 -2.351)"/><path class="q" d="M225.836,122.851a.286.286,0,0,0,.241-.447l-3.219-4.99a.286.286,0,0,0-.393-.089.3.3,0,0,0-.089.4l3.219,4.99A.277.277,0,0,0,225.836,122.851Z" transform="translate(-3.252 -10.153)"/><path class="k" d="M213.226,109.464c.948-.188,1.565-2.325,1.789-3.649,1.252-.277,3.023-1.941,4.239-2.325-2.066,6.823-2.209,10.391-2.611,11.178-.894,1.726-1.476,2.683-2.593,1.619s-2.03,1.019-2.808,0-2.137,1.136-2.5-.259,1.9-3.318,1.9-3.318S209.577,110.206,213.226,109.464Z" transform="translate(-1.812 -8.695)"/><path class="p" d="M233.458,60.211c1.18,4.221-14.1,44.427-14.1,44.427l-6.555-1.654s2.5-9.211,2.093-12.573-.358-4.614,2.352-7.53,1.288-14.121,3.121-18.592S232.653,57.278,233.458,60.211Z" transform="translate(-2.245 -3.987)"/><path class="r" d="M219.963,83.061a.286.286,0,0,0,.268-.188c1.118-2.915.894-6.1.715-9.184-.089-.778-.089-1.672-.161-2.45A38.74,38.74,0,0,1,222.243,59.3a6.26,6.26,0,0,1,1.261-2.683,2.236,2.236,0,0,1,2.477-.671.286.286,0,0,0,.376-.143.277.277,0,0,0-.134-.376,2.8,2.8,0,0,0-3.139.8,6.779,6.779,0,0,0-1.4,2.889,39.347,39.347,0,0,0-1.476,12.117c0,.823.08,1.645.134,2.468.2,3.023.393,6.144-.68,8.943a.3.3,0,0,0,.17.376Z" transform="translate(-2.969 -3.594)"/><path class="r" d="M225.352,91.506a.286.286,0,0,0,.268-.188c.939-2.477,1.789-4.471,2.629-6.483a66.175,66.175,0,0,0,4.641-14.076.286.286,0,0,0-.224-.34.3.3,0,0,0-.34.224,64.6,64.6,0,0,1-4.641,13.942c-.832,1.976-1.69,4.024-2.638,6.51a.286.286,0,0,0,.17.367Z" transform="translate(-3.538 -5.198)"/><path class="r" d="M241.85,59.814h.054a.277.277,0,0,0,.224-.34,21.328,21.328,0,0,0-7.074-11.992.289.289,0,1,0-.376.438,20.747,20.747,0,0,1,6.895,11.643.286.286,0,0,0,.277.25Z" transform="translate(-4.547 -2.766)"/></g></g></svg>