<svg xmlns="http://www.w3.org/2000/svg" xmlns:xlink="http://www.w3.org/1999/xlink" width="500" height="200" viewBox="0 0 280 112"><defs><style>.a{fill:none;}.b{clip-path:url(#a);}.c{fill:#fffaea;}.d{fill:#087de2;}.e{fill:#f0dea9;}.f{fill:#fff0c4;}.g{fill:#fff4d5;opacity:0.4;}.h{fill:#b77053;}.i{fill:#d63348;}.j{fill:#734e4f;}.k{fill:#ad293a;}.l{fill:#eac2a5;}.m{fill:#ece0d3;}.n{fill:#dc5955;}.o{fill:#393762;}</style><clipPath id="a"><rect class="a" width="280" height="112"/></clipPath></defs><g class="b"><path class="c" d="M121.563,93.354l-49.978-.136C14.817,93.063-32.434,22.649,28.661,12.593c47.39-7.768,94.76-25.8,118.671,4.035,13.839,17.271,24.906,5.254,38.475,8.2C219.518,32.163,223.4,93.632,121.563,93.354Z" transform="translate(233.197 72.018) rotate(164)"/><g transform="translate(162.751 15.417)"><path class="d" d="M159.657,35.241l3.77,3.731a.585.585,0,0,0,.517.122.579.579,0,0,0,.4-.346,13.1,13.1,0,0,0,.523-3.892,15,15,0,0,0-.581-3.806.543.543,0,0,0-.392-.378.55.55,0,0,0-.526.148l-3.712,3.673A.536.536,0,0,0,159.657,35.241ZM169.763,24.5l-1.743,1.874a.57.57,0,0,0-.087.575,18.417,18.417,0,0,1,1.882,7.9,18.384,18.384,0,0,1-1.905,7.864.57.57,0,0,0,.1.615l1.743,1.725a.585.585,0,0,0,.86-.092,19.9,19.9,0,0,0,2.736-10.3,19.112,19.112,0,0,0-2.718-10.066.585.585,0,0,0-.871-.1Zm-7.772,1.15L150.729,14.511a.584.584,0,0,0-.389-.161h-1.3a.578.578,0,0,0-.581.54V28.624a.576.576,0,0,1-.354.463.586.586,0,0,1-.581-.078l-8.178-8.123a.585.585,0,0,0-.778,0l-2.12,2.1a.57.57,0,0,0,0,.77l10.827,10.716a.57.57,0,0,1,0,.765L136.452,45.956a.57.57,0,0,0,0,.77l2.12,2.1a.585.585,0,0,0,.778,0l8.207-8.123a.586.586,0,0,1,.581-.078.576.576,0,0,1,.354.463V54.821a.578.578,0,0,0,.581.575h1.3a.584.584,0,0,0,.389-.161l11.233-11.193a.536.536,0,0,0,0-.765l-8.132-8.048a.536.536,0,0,1,0-.765l8.132-8.048a.57.57,0,0,0,0-.77Zm-8.44-2.575,2.614,2.581a.57.57,0,0,1,0,.77l-2.614,2.587a.586.586,0,0,1-.581.078.576.576,0,0,1-.354-.463V23.45a.54.54,0,0,1,.339-.5A.55.55,0,0,1,153.552,23.071Zm2.637,20.971-2.614,2.587a.586.586,0,0,1-.581.078.576.576,0,0,1-.354-.463V41.07a.576.576,0,0,1,.355-.43.586.586,0,0,1,.557.068l2.614,2.587A.536.536,0,0,1,156.189,44.042Z" transform="translate(-136.302 -14.35)"/></g><path class="e" d="M283.012,122.49c-1.072-.877-3.021-.193-4.686,1.4l-3.668-3.726a23.563,23.563,0,0,0,7.707-17.264l4.677-.728c.806,2.06,2.312,3.384,3.544,3.007s1.772-2.63,1.01-5-2.41-3.937-3.721-3.507c-1.072.333-1.55,1.911-1.285,3.761l-4.252.666A23.525,23.525,0,0,0,277.75,88.83l1.568-2.56c1.373.736,2.746.815,3.322.088.7-.877-.062-2.63-1.7-3.893S277.4,80.9,276.7,81.789s-.1,2.218,1.143,3.411l-1.355,2.043A23.992,23.992,0,0,0,261.7,79.352l.39-2.446c1.852.281,3.419-.167,3.774-1.21.443-1.289-1.125-2.964-3.49-3.753s-4.633-.386-5.076.877.93,2.718,3.021,3.56l-.443,2.771a24.238,24.238,0,0,0-13.944,3.507l-1.9-3.042a.606.606,0,0,0,.1-.114c1.869-2.376,2.312-5.12.992-6.137s-3.9.088-5.758,2.464-2.312,5.12-.992,6.137c1.01.78,2.746.316,4.35-1.008l1.683,2.709a23.59,23.59,0,0,0-9.816,19.745l-2.188-.447c.115-2.359-.815-4.314-2.135-4.384s-2.658,1.815-2.808,4.279.771,4.542,2.135,4.638c1.054.079,2.046-1.061,2.525-2.718l2.6.535a23.593,23.593,0,0,0,7.858,15.142l-1.32,2.122c-2.241-1.569-4.713-1.9-5.661-.7s.089,3.735,2.418,5.524,5.005,2.209,6,.947c.824-1.052.213-2.937-1.355-4.568L244,121.6a23.353,23.353,0,0,0,3.428,2.069A23.9,23.9,0,0,0,261.91,126.1l-.159,2.008c-2.25.386-3.907,1.622-3.756,2.885s2.3,2.2,4.784,1.92,4.359-1.613,4.2-2.964c-.133-1.078-1.55-1.832-3.384-1.946l.177-2.245a24.08,24.08,0,0,0,9.461-4.463l3.88,3.963c-1.55,2.2-1.86,4.612-.664,5.532s3.774-.088,5.581-2.385S284.288,123.463,283.012,122.49Z" transform="translate(-20.943 -28.65)"/><path class="f" d="M3.2,0a3.25,3.25,0,0,1,3.221,3.24A3.184,3.184,0,0,1,3.224,6.456,3.25,3.25,0,0,1,0,3.216,3.184,3.184,0,0,1,3.2,0Z" transform="translate(231.617 64.204) rotate(-62.45)"/><path class="f" d="M254.391,110.669a3.25,3.25,0,0,0-4.363,1.358,3.184,3.184,0,0,0,1.374,4.318,3.25,3.25,0,0,0,4.362-1.362,3.184,3.184,0,0,0-1.373-4.314Z" transform="translate(-23.478 -33.427)"/><ellipse class="f" cx="4.447" cy="4.401" rx="4.447" ry="4.401" transform="translate(245.654 60.793)"/><path class="f" d="M267.323,121.55a3.241,3.241,0,0,0-4.345,1.361,3.175,3.175,0,0,0,1.369,4.3,3.241,3.241,0,0,0,4.348-1.349,3.184,3.184,0,0,0-1.373-4.314Z" transform="translate(-24.956 -34.769)"/><path class="f" d="M2.73,0A2.775,2.775,0,0,1,5.485,2.758,2.707,2.707,0,0,1,2.758,5.484,2.775,2.775,0,0,1,0,2.729,2.707,2.707,0,0,1,2.73,0Z" transform="translate(238.573 76.027) rotate(-44.5)"/><path class="f" d="M248.514,95.8a1.635,1.635,0,0,0-1.794.185,1.594,1.594,0,0,0-.51,1.713,1.627,1.627,0,0,0,2.987.259A1.6,1.6,0,0,0,248.514,95.8Z" transform="translate(-23.076 -31.618)"/><path class="g" d="M235.63,121.8c-.983,1.263.089,3.735,2.418,5.524s5.005,2.209,6,.947c.824-1.052.213-2.937-1.355-4.568l1.347-2.174a23.979,23.979,0,0,0,17.9,4.577l-.159,2.008c-2.25.386-3.907,1.622-3.756,2.885s2.3,2.2,4.784,1.92,4.359-1.613,4.2-2.964c-.133-1.078-1.55-1.832-3.384-1.946l.177-2.245a24.321,24.321,0,0,0,3.49-1.078c-5.041.342-24.8-8.514-21.332-24.129s20.446-20.166,20.446-20.166a23.8,23.8,0,0,0-4.669-1.122l.39-2.446c1.852.281,3.42-.167,3.774-1.21.443-1.289-1.125-2.964-3.49-3.753s-4.633-.386-5.076.877.93,2.718,3.021,3.56l-.443,2.771a24.238,24.238,0,0,0-13.944,3.507l-1.9-3.042a.607.607,0,0,0,.1-.114c1.869-2.376,2.312-5.12.992-6.137s-3.9.088-5.758,2.464-2.312,5.12-.992,6.137c1.01.78,2.746.316,4.35-1.008l1.683,2.709a23.59,23.59,0,0,0-9.816,19.745l-2.188-.447c.115-2.359-.815-4.314-2.135-4.384s-2.658,1.815-2.808,4.279.771,4.542,2.135,4.638c1.054.079,2.046-1.061,2.525-2.718l2.6.535a23.592,23.592,0,0,0,7.858,15.142l-1.32,2.122C239.05,120.937,236.578,120.6,235.63,121.8Z" transform="translate(-20.947 -28.641)"/><path class="e" d="M3.358,0A3.407,3.407,0,0,1,6.747,3.382,3.327,3.327,0,0,1,3.392,6.727,3.407,3.407,0,0,1,0,3.348,3.327,3.327,0,0,1,3.358,0Z" transform="translate(231.045 17.545) rotate(-36.54)"/><path class="e" d="M3.358,0A3.407,3.407,0,0,1,6.747,3.382,3.327,3.327,0,0,1,3.392,6.727,3.407,3.407,0,0,1,0,3.348,3.327,3.327,0,0,1,3.358,0Z" transform="translate(148.882 102.619) rotate(-36.54)"/><path class="e" d="M5.005,0a5.075,5.075,0,0,1,5.032,5.075,5,5,0,0,1-5,5.044A5.075,5.075,0,0,1,0,5.048,5,5,0,0,1,5.005,0Z" transform="translate(152.039 72.003) rotate(-72.28)"/><path class="e" d="M211.814,99.5a3.393,3.393,0,0,0-4.552,1.413,3.324,3.324,0,0,0,1.424,4.507,3.393,3.393,0,0,0,4.555-1.4,3.31,3.31,0,0,0,.234-2.551A3.349,3.349,0,0,0,211.814,99.5Z" transform="translate(-23.606 -12.213)"/><path class="e" d="M3.347,0a3.405,3.405,0,0,1,3.375,3.39A3.329,3.329,0,0,1,3.379,6.751,3.405,3.405,0,0,1,0,3.361,3.329,3.329,0,0,1,3.347,0Z" transform="matrix(0.541, -0.841, 0.841, 0.541, 32.05, 62.698)"/><ellipse class="e" cx="3.563" cy="3.526" rx="3.563" ry="3.526" transform="matrix(0.999, -0.042, 0.042, 0.999, 58.053, 2.424)"/><path class="e" d="M27.467,43.145a3.384,3.384,0,1,0,3.765-2.928,3.4,3.4,0,0,0-2.5.689,3.332,3.332,0,0,0-1.267,2.239Z" transform="translate(-3.131 -4.952)"/><ellipse class="e" cx="1.692" cy="1.675" rx="1.692" ry="1.675" transform="translate(74.769 46.066)"/><path class="e" d="M57.839,29.165a1.691,1.691,0,1,0,2.717-1.182,1.706,1.706,0,0,0-1.712-.206,1.676,1.676,0,0,0-1,1.388Z" transform="translate(-6.599 -3.405)"/><g transform="translate(28.176 33.832) rotate(-8)"><path class="h" d="M37.433,7.8c-.273-2.676-.845-4.932-1.167-7.62L.135,0C-.589,2.282,1.852,4.475,1.614,6.165.776,12.011,5.665,25.894,5.665,25.894L6.907,33.5,8.486,62.357s-1.615,14.1-2.58,25.257c-.15,1.727-.226,3.4-.239,5.068,0,.444,0,.863,0,1.233.207,8.632,3.019,16.6,3.1,25.6l4.41,1.083s1.79-14.8,3.6-27.909h0c.313-2.22.625-4.378.925-6.425,0,.456-.088.913-.125,1.369-.15,1.714-.214,3.391-.227,5.056a10.984,10.984,0,0,0,0,1.233c.207,8.632,3.019,16.584,3.113,25.587l4.4,1.083s1.79-14.8,3.6-27.909h0c1.251-9.373,2.639-17.87,3.35-19.412,1.1-2.467,3.19-23.346,5.341-38.058h0C38.144,29.662,37.991,13.31,37.433,7.8Z" transform="translate(22.634 94.037)"/><path class="i" d="M0,50.49S-.156,64.055,1.077,65.423h0l3.075,5.141,35.831,1.67.514-5.019,1.782-1.16a4.277,4.277,0,0,0,1.871-4.477l-9.02-23.29a72.308,72.308,0,0,1-.069-10.975c.5-3.589-8.123-23.29-9.791-25.5s-8.321-2.635-11.151.006S3.546,15.738,2.9,18.13,0,50.49,0,50.49Z" transform="translate(20.162 29.601)"/><path class="i" d="M39.009,0c-3.738.878-19.94,10.073-21.474,13.058S-5.305,50.381,1.24,54.731s24.373-4.3,24.373-4.3L27.5,31.238Z" transform="translate(-0.003 29.18)"/><path class="j" d="M3.686,8.336A.375.375,0,0,1,3.4,8.2,14.6,14.6,0,0,1,0,.409.368.368,0,0,1,.085.136.375.375,0,0,1,.339,0,.385.385,0,0,1,.762.335a13.774,13.774,0,0,0,3.21,7.4.38.38,0,0,1,0,.53A.389.389,0,0,1,3.686,8.336Z" transform="translate(40.449 108.182)"/><path class="j" d="M.366,74.794H.279a.373.373,0,0,1-.234-.171A.366.366,0,0,1,0,74.338C.08,74.017,8.27,41.975,9.682,35.919s.8-31.274.8-31.533a.393.393,0,0,1,.1-.259L14.448.105a.389.389,0,0,1,.536,0,.367.367,0,0,1,0,.53l-3.74,3.9c0,2.343.547,25.65-.827,31.57S.815,74.214.74,74.535a.387.387,0,0,1-.374.259Z" transform="translate(40.056 103.299)"/><path class="k" d="M.374.754a.37.37,0,1,1,0-.74L33.8,0a.382.382,0,0,1,0,.752Z" transform="translate(24.762 96.747)"/><path class="l" d="M1.33,13.634l2.755-2.813s4-.68,4.785-.681S13.854,7.2,14.228,6.906s-2.578-2.465-2.578-2.465a24.124,24.124,0,0,0,1.422-2.726C13.21,1.333,13.485-.6,12.5.186L9.895,2.654l-1.62.321a20.378,20.378,0,0,0-3.49,2.912L0,8.751C.459,10.379.894,12.006,1.33,13.634Z" transform="translate(92.885 17.029)"/><path class="m" d="M21.886,0,6.654,12.337,0,18.125l1.669,1.343L22.434,1.046C22.16.54,22.172.528,21.886,0Z" transform="translate(100.973 6.381)"/><path class="l" d="M3.09,3.552C3.975,2.972,4.836-.025,4.338,0S2.892,1.234,2.892,1.234L2.679,2.2s-.386-.518-.536-.357l-.9.9L0,4.343Z" transform="translate(104.024 20.334)"/><path class="i" d="M0,27.644C5.343,26.519,16.8,34.9,22.28,32.8c5.184-2,28.075-25.6,28.075-25.6L48.74-.005,23.5,12.265S10.921,9.239,4.655,8.083C4.128,15.446.126,20.319,0,27.644Z" transform="translate(48.434 23.477)"/><path class="i" d="M0,0C30.137,2.167,31.718,4.817,23.39,14.255L18.661,50.217,8.129,34.709Z" transform="translate(39.005 29.571)"/><path class="n" d="M5.124,4.231,10.247,0,5.07,13.012,0,14.05Z" transform="translate(32.945 57.895)"/><path class="n" d="M0,7.93,1.86,0l8.309,2.844L4.145,14.365Z" transform="translate(28.225 59.283)"/><path class="l" d="M2.556,7.032l3.4-3.048S8.677.283,9.8,0l.485,2.466s8.2-1.053,8.41-.72L19.8,3.631l-2.492.828s.909.949.8,1.356a2.894,2.894,0,0,1-.511.9A7.4,7.4,0,0,1,17.967,8.8c0,1.048-1.981.087-2.393,1.012s-6.318,1.545-7.152,1.545S0,13.174,0,13.174Z" transform="translate(18.488 64.747)"/><path class="k" d="M5.471,1.146h0L.351.742A.362.362,0,0,1,.089.62.355.355,0,0,1,0,.347.357.357,0,0,1,.125.089.364.364,0,0,1,.4,0l5.1.38a.375.375,0,0,1,.262.13.367.367,0,0,1,.087.277.373.373,0,0,1-.374.358Z" transform="translate(16.232 69.634)"/><path class="k" d="M.368,28.875H.218a.371.371,0,0,1-.2-.208.366.366,0,0,1,.011-.285A94.95,94.95,0,0,0,6.571,7.759a12.617,12.617,0,0,0,.351-3.885A4.433,4.433,0,0,0,5.2.682.367.367,0,0,1,5.118.164a.376.376,0,0,1,.523-.1,5.208,5.208,0,0,1,2.029,3.7,13.177,13.177,0,0,1-.326,4.119A95.349,95.349,0,0,1,.679,28.64.374.374,0,0,1,.368,28.875Z" transform="translate(19.541 41.647)"/><path class="k" d="M15.655,27.465a.4.4,0,0,1-.324-.185L.046.553A.38.38,0,0,1,.183.048.388.388,0,0,1,.706.2L15.992,26.91a.367.367,0,0,1,.032.284.371.371,0,0,1-.182.222A.327.327,0,0,1,15.655,27.465Z" transform="translate(40.644 47.033)"/><path class="l" d="M20.762,28.532l1.1-5.192s3.364-.187,4.287-1.926c.387-.715.126-3.256-.906-7.078-.1-.407,1.682-.087,1.558-.506-.236-.814-4.159-3.562-4.42-5.115-.931-5.709-1.865-7-3.97-8.026C13.751-1.578-.28,1.931,0,8.43s3.284,9.2,9.136,16.655l-.212,1.233A5.925,5.925,0,0,0,10.594,31.5a6.064,6.064,0,0,0,5.219,1.688h0a6.012,6.012,0,0,0,4.949-4.652Z" transform="translate(27.851 2.846)"/><path class="o" d="M11.29,27.934,12.8,21.04S7.01,17.751,9.529,14.555,19.4,22.134,19.4,22.134l.661-1.591-3.31-6.99a6,6,0,0,0,1.884-4.934s6.567-2.47,6.047-7.082S4.4,3.78,1.048,7.617,2.723,19.109,11.29,27.934Z" transform="translate(25.9 -0.003)"/></g></g></svg>